<svg version="1.1" id="Layer_1" xmlns="http://www.w3.org/2000/svg" xmlns:xlink="http://www.w3.org/1999/xlink" x="0px" y="0px"
	 width="175" height="90" viewBox="0 0 640 640" enable-background="new 0 0 640 640" xml:space="preserve">
<path fill="#000000" opacity="1.000000" stroke="none" 
	d="
M176.087418,219.839172 
	C183.001694,218.299683 189.490570,216.796097 196.212265,218.543839 
	C205.493286,220.957031 210.939819,227.712524 211.221252,237.267883 
	C211.654892,251.991180 206.011734,264.929321 199.204620,277.450989 
	C186.161240,301.444183 168.266556,321.544342 148.441772,340.061707 
	C147.471939,340.967590 146.347183,341.815094 145.686188,342.923340 
	C143.919449,345.885559 145.365067,348.643127 148.820282,348.719696 
	C155.316162,348.863617 161.828964,349.004822 168.312424,348.689270 
	C172.866409,348.467651 174.456512,349.990509 174.442963,354.628937 
	C174.429642,359.200531 172.443558,359.625275 168.600098,359.562347 
	C159.289566,359.409882 149.969086,359.718353 140.655609,359.957977 
	C136.447601,360.066193 132.729218,359.818817 133.412720,353.678680 
	C130.052002,354.344299 128.123367,356.521698 125.885338,358.073456 
	C110.887199,368.472809 95.336090,377.711456 77.175659,381.523529 
	C75.391975,381.897949 73.562912,382.106323 71.743729,382.253662 
	C50.847137,383.946106 44.514347,370.350372 47.363228,353.534576 
	C50.230839,336.608246 58.295582,321.730652 67.974121,307.878143 
	C90.991768,274.933929 119.135361,247.434143 154.859848,228.294144 
	C161.488495,224.742767 168.470306,222.045593 176.087418,219.839172 
M137.438400,253.932266 
	C135.589996,255.350647 133.706955,256.726318 131.898422,258.193848 
	C105.409180,279.688171 82.363281,304.137695 66.859032,334.909485 
	C62.888371,342.790131 59.689301,351.094574 59.359196,360.075806 
	C59.097233,367.202942 61.830940,369.683777 68.855553,369.795837 
	C73.256844,369.866028 77.458679,368.967896 81.562248,367.558716 
	C100.110069,361.189240 115.935326,350.220703 131.117157,338.161011 
	C133.013031,336.655090 133.594604,334.782898 133.585205,332.483002 
	C133.545700,322.825867 133.759384,313.163025 133.479004,303.513947 
	C133.367676,299.683014 133.789886,297.589905 138.365814,297.638916 
	C142.749420,297.685913 145.291183,298.449554 145.033173,303.665436 
	C144.683472,310.735260 144.946152,317.835388 144.946152,325.485352 
	C149.932190,321.963043 153.212753,317.559052 156.896912,313.600128 
	C171.491257,297.917145 184.294739,280.953278 193.108978,261.284454 
	C196.239731,254.298203 198.956619,247.100357 198.724548,239.223740 
	C198.537766,232.882751 195.662720,230.079376 189.276657,230.371902 
	C183.939316,230.616379 178.745911,231.824936 173.736404,233.742462 
	C160.901550,238.655365 149.193970,245.598557 137.438400,253.932266 
z"/>
<path fill="#000000" opacity="1.000000" stroke="none" 
	d="
M210.871857,318.175781 
	C215.414948,324.520752 219.741760,330.578400 224.754272,337.596069 
	C234.867966,323.508270 244.462921,310.143036 254.010376,296.843994 
	C256.620697,298.420746 256.135864,300.225037 256.137848,301.813568 
	C256.159302,319.128204 256.072601,336.443420 256.196655,353.757172 
	C256.224976,357.708160 255.507278,360.037018 250.796814,360.009644 
	C246.274902,359.983337 244.587143,358.390564 244.735580,353.812775 
	C245.008087,345.409180 244.813263,336.990417 243.739807,328.267426 
	C238.813522,335.281372 233.877441,342.288483 228.963989,349.311401 
	C224.929443,355.078064 224.412201,355.077026 220.352402,349.469666 
	C215.590454,342.892456 210.775803,336.353394 204.877274,330.047119 
	C204.877274,333.868500 204.877701,337.689850 204.877151,341.511200 
	C204.876480,346.172699 204.815887,350.835175 204.890289,355.495453 
	C204.966110,360.245056 201.520035,359.445374 198.618469,359.674591 
	C195.621964,359.911316 193.780121,359.003937 193.784241,355.628784 
	C193.807007,336.982452 193.783020,318.336060 193.812790,299.689728 
	C193.813980,298.939056 194.195435,298.188934 194.691666,296.366211 
	C201.486694,303.179169 205.363495,311.087799 210.871857,318.175781 
z"/>
</svg>