<svg height="512" width="512" xmlns="http://www.w3.org/2000/svg"><path d="m448.8439636 316.8224487v-121.6216736c4.1664429-.9976196 8.261322-2.5892639 12.1588745-4.8298035 21.8334961-12.6817932 29.2857056-40.5293884 16.7347107-62.3629761-12.6817932-21.8335114-40.5293884-29.2856979-62.3629761-16.7346954-3.9276428 2.2813263-7.3816528 5.0595474-10.3458252 8.199173l-105.3018188-60.7978248c6.6014709-22.0191994-4.2705994-45.8786011-25.93573-55.0507469-23.2362671-9.8371754-49.9692535.9930778-59.8065186 24.2293434-4.2989197 10.1543674-4.6501923 20.976244-1.7446899 30.7642651l-105.3036652 60.7988625c-14.1323471-14.8911362-37.0941086-18.8992767-55.6967049-8.2790527-21.8707733 12.4861298-29.594038 40.3907852-17.1079903 62.2616348 6.5032425 11.3911438 17.1919365 18.9331055 29.0294724 21.7921753v121.6525592c-21.1422234 5.1567993-36.1582489 24.7825623-34.7811852 47.2064209 1.5436802 25.1366272 23.1808853 44.1854553 48.4346657 42.6998596 11.9412766-.7872009 22.4965439-6.0666504 30.1384964-14.0744019l105.2865143 60.7889709c-6.179657 20.8371582 3.254303 43.6761169 23.3864441 53.7241821 22.5769043 11.2682495 49.9920044 2.0106506 61.2019348-20.4494324 5.6194763-11.2592163 6.1613159-23.706665 2.4940491-34.7550659l104.6708069-60.4334717c8.4454346 9.4900513 20.7602234 15.4396667 34.4360657 15.3096619 25.1828308-.2393799 45.5301208-20.8381042 45.290741-46.0209656-.1074219-21.4211119-14.9049683-39.2262877-34.8756714-44.0169982zm-330.5577469 33.5742493c-2.1131897-8.6637573-6.6496735-16.2986755-12.8217545-22.1973877l137.8399964-238.7387695c8.539032 2.4894333 17.3392487 2.3663864 25.4445038.0061417l137.8271484 238.7165145c-6.2328186 5.9347534-10.7914734 13.5970764-12.8850403 22.213501zm280.3536454-176.7604218c6.4229736 11.1732941 16.8890381 18.5683594 28.5012817 21.455658v121.7996063c-.5890503.1454773-1.1730042.3025208-1.7528992.4704895l-137.8379211-238.7351761c.4143982-.3965149.8177795-.805954 1.2182007-1.2193069l105.5436096 60.9374695c-3.2609863 11.4556274-2.0744019 24.1542663 4.3277283 35.2912597zm-174.1546479-94.9846878-137.8139038 238.693779c-.5980835-.1741333-1.2000732-.3384399-1.8074112-.4884338v-121.7291718c3.9461441-.9847717 7.8250885-2.5061035 11.5292816-4.6208191 18.6504745-10.6475983 26.9533005-32.4238892 21.2955933-52.2387695l105.4884872-60.9055481c.4245911.4391251.8642884.865799 1.3079529 1.2889633zm65.2523651 356.976738c-3.6878357-4.0439148-8.162323-7.497467-13.3588867-10.091095-18.3183594-9.1427917-39.7821503-4.8483276-53.2470856 9.1560974l-105.338295-60.8189087c.1706009-.5874634.3323517-1.1784363.47966-1.7749329h275.4713135c.2489624 1.0110474.5194092 2.0136108.8342896 2.9970398z"/></svg>