<svg viewBox="0 0 512 512" xmlns="http://www.w3.org/2000/svg"><path d="m471.95 253.05c0 120.9-98.01 218.9-218.9 218.9-120.9 0-218.9-98.01-218.9-218.9 0-120.9 98.01-218.9 218.9-218.9 120.9 0 218.9 98.01 218.9 218.9" fill="#2a7fff" fill-rule="evenodd"/><path d="m187.63 44.13c-88.93 27.822-153.47 110.83-153.47 208.94 0 101.71 69.37 187.2 163.38 211.78 21.571-67.43 19.591-130.31-1.125-207.62-23.14-86.37-31.33-144.98-8.781-213.09" fill="#1f467c"/><g fill-rule="evenodd"><path d="m256 1c-140.83 0-255 114.17-255 255s114.17 255 255 255 255-114.17 255-255-114.17-255-255-255m8.827 44.931c120.9 0 218.9 98 218.9 218.9s-98 218.9-218.9 218.9-218.93-98-218.93-218.9 98.03-218.9 218.93-218.9" fill-opacity=".067"/><g fill-opacity=".129"><path d="m256 4.433c-138.94 0-251.57 112.63-251.57 251.57s112.63 251.57 251.57 251.57 251.57-112.63 251.57-251.57-112.63-251.57-251.57-251.57m5.885 38.556c120.9 0 218.9 98 218.9 218.9s-98 218.9-218.9 218.9-218.93-98-218.93-218.9 98.03-218.9 218.93-218.9"/><path d="m256 8.356c-136.77 0-247.64 110.87-247.64 247.64s110.87 247.64 247.64 247.64 247.64-110.87 247.64-247.64-110.87-247.64-247.64-247.64m2.942 31.691c120.9 0 218.9 98 218.9 218.9s-98 218.9-218.9 218.9-218.93-98-218.93-218.9 98.03-218.9 218.93-218.9"/></g><path d="m253.04 7.859c-135.42 0-245.19 109.78-245.19 245.19 0 135.42 109.78 245.19 245.19 245.19 135.42 0 245.19-109.78 245.19-245.19 0-135.42-109.78-245.19-245.19-245.19zm0 26.297c120.9 0 218.9 98 218.9 218.9s-98 218.9-218.9 218.9-218.93-98-218.93-218.9 98.03-218.9 218.93-218.9z" fill="#fff" stroke="#000" stroke-opacity=".31" stroke-width="4.904"/></g><text x="729.64001" y="231.36"><tspan x="729.64001" y="231.36"/></text><text transform="scale(4.0128 .2492)" x="378.91" y="579.25"/><text x="1310.91" y="151.36"><tspan x="1310.91" y="151.36"/></text><text transform="scale(4.0128 .2492)" x="523.76001" y="258.22"/><text x="239.33" y="-29.900999"><tspan x="239.33" y="-29.900999"/></text><text transform="scale(4.0128 .2492)" x="256.72" y="-469.14001"/><text x="1337.38" y="-246.37"><tspan x="1337.38" y="-246.37"/></text><text transform="scale(4.0128 .2492)" x="530.35999" y="-1337.8"/><text x="1918.65" y="-326.38"><tspan x="1918.65" y="-326.38"/></text><text transform="scale(4.0128 .2492)" x="675.21002" y="-1658.84"/><text x="1529.53" y="-798.78003"><tspan x="1529.53" y="-798.78003"/></text><text transform="scale(4.0128 .2492)" x="578.23999" y="-3554.49"/><text x="2110.79" y="-878.78003"><tspan x="2110.79" y="-878.78003"/></text><text transform="scale(4.0128 .2492)" x="723.09003" y="-3875.52"/><text x="277.98999" y="535.94"><tspan x="277.98999" y="535.94"/></text><text x="117.74" y="2.596"><tspan x="117.74" y="2.596"/></text><text transform="scale(4.0128 .2492)" x="226.42" y="-338.73999"/><text x="699.01001" y="-77.400002"><tspan x="699.01001" y="-77.400002"/></text><text transform="scale(4.0128 .2492)" x="371.26999" y="-659.77002"/><text x="-372.57001" y="-258.66"><tspan x="-372.57001" y="-258.66"/></text><text transform="scale(4.0128 .2492)" x="104.23" y="-1387.13"/><text x="725.47998" y="-475.13"><tspan x="725.47998" y="-475.13"/></text><text transform="scale(4.0128 .2492)" x="377.87" y="-2255.79"/><text x="1306.75" y="-555.14001"><tspan x="1306.75" y="-555.14001"/></text><text transform="scale(4.0128 .2492)" x="522.71997" y="-2576.8301"/><text x="917.63" y="-1027.54"><tspan x="917.63" y="-1027.54"/></text><text transform="scale(4.0128 .2492)" x="425.75" y="-4472.48"/><text x="1498.89" y="-1107.54"><tspan x="1498.89" y="-1107.54"/></text><text transform="scale(4.0128 .2492)" x="570.59998" y="-4793.5098"/><text x="-333.91" y="307.17999"><tspan x="-333.91" y="307.17999"/></text><text x="20.219999" y="31.767"><tspan x="20.219999" y="31.767"/></text><text transform="scale(4.0128 .2492)" x="202.12" y="-221.67999"/><text x="601.48999" y="-48.23"><tspan x="601.48999" y="-48.23"/></text><text transform="scale(4.0128 .2492)" x="346.97" y="-542.71002"/><text x="-470.09" y="-229.49001"><tspan x="-470.09" y="-229.49001"/></text><text transform="scale(4.0128 .2492)" x="79.929001" y="-1270.0699"/><text x="627.96002" y="-445.95999"><tspan x="627.96002" y="-445.95999"/></text><text transform="scale(4.0128 .2492)" x="353.57001" y="-2138.73"/><text x="1209.23" y="-525.96997"><tspan x="1209.23" y="-525.96997"/></text><text transform="scale(4.0128 .2492)" x="498.42001" y="-2459.77"/><text x="820.10999" y="-998.37"><tspan x="820.10999" y="-998.37"/></text><text transform="scale(4.0128 .2492)" x="401.45001" y="-4355.4199"/><text x="1401.37" y="-1078.37"><tspan x="1401.37" y="-1078.37"/></text><text transform="scale(4.0128 .2492)" x="546.29999" y="-4676.4502"/><text x="-431.42999" y="336.35001"><tspan x="-431.42999" y="336.35001"/></text><text x="-60.049999" y="-.776"><tspan x="-60.049999" y="-.776"/></text><text transform="scale(4.0128 .2492)" x="182.12" y="-352.26999"/><text x="521.21997" y="-80.779999"><tspan x="521.21997" y="-80.779999"/></text><text transform="scale(4.0128 .2492)" x="326.95999" y="-673.29999"/><text x="-550.35999" y="-262.04001"><tspan x="-550.35999" y="-262.04001"/></text><text transform="scale(4.0128 .2492)" x="59.925999" y="-1400.66"/><text x="547.69" y="-478.51001"><tspan x="547.69" y="-478.51001"/></text><text transform="scale(4.0128 .2492)" x="333.56" y="-2269.3201"/><text x="1128.96" y="-558.52002"><tspan x="1128.96" y="-558.52002"/></text><text transform="scale(4.0128 .2492)" x="478.41" y="-2590.3601"/><text x="739.84003" y="-1030.92"><tspan x="739.84003" y="-1030.92"/></text><text transform="scale(4.0128 .2492)" x="381.44" y="-4486.0098"/><text x="1321.1" y="-1110.92"><tspan x="1321.1" y="-1110.92"/></text><text transform="scale(4.0128 .2492)" x="526.28998" y="-4807.04"/><text x="-511.70001" y="303.79999"><tspan x="-511.70001" y="303.79999"/></text><text x="-94.769997" y="53.459999"><tspan x="-94.769997" y="53.459999"/></text><text transform="scale(4.0128 .2492)" x="173.46001" y="-134.63"/><text x="486.5" y="-26.538"><tspan x="486.5" y="-26.538"/></text><text transform="scale(4.0128 .2492)" x="318.31" y="-455.66"/><text x="-585.08002" y="-207.8"><tspan x="-585.08002" y="-207.8"/></text><text transform="scale(4.0128 .2492)" x="51.279999" y="-1183.01"/><text x="512.96997" y="-424.26999"><tspan x="512.96997" y="-424.26999"/></text><text transform="scale(4.0128 .2492)" x="324.91" y="-2051.6799"/><text x="1094.24" y="-504.28"><tspan x="1094.24" y="-504.28"/></text><text transform="scale(4.0128 .2492)" x="469.76001" y="-2372.72"/><text x="705.12" y="-976.67999"><tspan x="705.12" y="-976.67999"/></text><text transform="scale(4.0128 .2492)" x="372.79001" y="-4268.3701"/><text x="1286.38" y="-1056.6801"><tspan x="1286.38" y="-1056.6801"/></text><text transform="scale(4.0128 .2492)" x="517.64001" y="-4589.3901"/><text x="-546.41998" y="358.04001"><tspan x="-546.41998" y="358.04001"/></text><path d="m138 149.84v23.594l23.563 23.563h-23.56v23.594l23.625 23.625h-23.62v23.563l23.625 23.625h-23.62v23.594l23.563 23.563h-23.56v23.594l109.72 109.72c1.774.042 3.559.063 5.344.063 120.89 0 218.88-97.98 218.88-218.87 0-1.785-.02-3.569-.063-5.344l-97.87-97.87h-236" opacity=".25"/><path d="m138 149.84v23.594h236v-23.59h-236m0 47.16v23.594h236v-23.59h-236m0 47.22v23.563h236v-23.56h-236m0 47.19v23.594h236v-23.59h-236m0 47.16v23.594h141.63v-23.59h-141.62" fill="#f9f9f9"/></svg>