<?xml version="1.0" standalone="no"?>
<!DOCTYPE svg PUBLIC "-//W3C//DTD SVG 20010904//EN"
 "http://www.w3.org/TR/2001/REC-SVG-20010904/DTD/svg10.dtd">
<svg version="1.0" xmlns="http://www.w3.org/2000/svg"
 width="175" height="40" viewBox="0 0 640.000000 640.000000"  enable-background="new 0 0 687 687"
 preserveAspectRatio="xMidYMid meet">

<g transform="translate(0.000000,640.000000) scale(0.100000,-0.100000)"
fill="#000000" stroke="none">
<path d="M1795 4213 c-411 -92 -996 -609 -1235 -1093 -66 -132 -85 -203 -85
-310 0 -108 9 -129 72 -177 31 -24 47 -28 113 -31 158 -8 357 75 597 246 34
25 65 44 70 44 4 -1 10 -15 13 -32 l5 -31 185 -2 185 -2 3 43 3 42 -145 0
-146 0 0 35 c0 32 13 48 133 168 326 324 527 664 527 891 0 107 -29 162 -105
197 -38 18 -137 24 -190 12z m169 -123 c17 -17 21 -32 20 -88 -3 -143 -117
-371 -301 -602 -74 -92 -244 -272 -251 -265 -3 2 -4 56 -3 119 2 155 -1 166
-50 166 l-39 0 0 -179 c0 -210 5 -198 -128 -294 -248 -178 -473 -271 -581
-238 -35 10 -42 17 -52 52 -26 86 37 267 160 459 204 319 525 625 833 793 180
98 340 130 392 77z"/>
<path d="M2516 3405 c-35 -54 -268 -375 -276 -380 -5 -3 -37 36 -72 86 -34 49
-99 140 -143 202 l-80 112 -3 -290 c-1 -159 0 -296 3 -303 7 -19 75 -12 76 8
0 8 0 79 0 157 0 78 4 145 8 147 4 3 52 -55 106 -129 53 -74 100 -133 104
-131 3 2 49 65 101 140 52 74 98 135 102 136 4 0 9 -75 10 -167 l3 -168 38 -2
c21 0 40 4 43 11 2 6 3 144 2 306 -3 294 -3 294 -22 265z"/>
</g>
</svg>
